HIERARCHY
ROOT Hips
{
	OFFSET 0.000000 0.000000 0.000000
	CHANNELS 6 Xposition Yposition Zposition Zrotation Yrotation Xrotation 
	JOINT LHipJoint
	{
		OFFSET 0.000000 0.000000 0.000000
		CHANNELS 3 Zrotation Yrotation Xrotation
		JOINT LeftUpLeg
		{
			OFFSET 1.363060 -1.794630 0.839290
			CHANNELS 3 Zrotation Yrotation Xrotation
			JOINT LeftLeg
			{
				OFFSET 2.448110 -6.726130 0.000000
				CHANNELS 3 Zrotation Yrotation Xrotation
				JOINT LeftFoot
				{
					OFFSET 2.562200 -7.039590 0.000000
					CHANNELS 3 Zrotation Yrotation Xrotation
					JOINT LeftToeBase
					{
						OFFSET 0.157640 -0.433110 2.322550
						CHANNELS 3 Zrotation Yrotation Xrotation
						End Site
						{
							OFFSET 0.000000 0.000000 0.000000
						}
					}
				}
			}
		}
	}
	JOINT RHipJoint
	{
		OFFSET 0.000000 0.000000 0.000000
		CHANNELS 3 Zrotation Yrotation Xrotation
		JOINT RightUpLeg
		{
			OFFSET -1.305520 -1.794630 0.839290
			CHANNELS 3 Zrotation Yrotation Xrotation
			JOINT RightLeg
			{
				OFFSET -2.542530 -6.985550 0.000000
				CHANNELS 3 Zrotation Yrotation Xrotation
				JOINT RightFoot
				{
					OFFSET -2.568260 -7.056230 0.000000
					CHANNELS 3 Zrotation Yrotation Xrotation
					JOINT RightToeBase
					{
						OFFSET -0.164730 -0.452590 2.363150
						CHANNELS 3 Zrotation Yrotation Xrotation
						End Site
						{
							OFFSET 0.000000 0.000000 0.000000
						}
					}
				}
			}
		}
	}
}
MOTION
Frames: 28
Frame Time: 0.008333
1.438319 17.367691 2.028710 -169.121248 -81.893055 -171.833510 -10.105480 0.252734 -2.846018 -12.785234 5.861422 -15.719811 -2.900837 -0.578098 10.314250 0.248050 -0.647171 -8.062054 -0.037600 -0.000000 -23.786700 9.199557 0.990100 -1.695240 6.473232 0.315592 -39.890302 1.545405 -2.685345 33.892562 -0.954824 -3.854600 0.521895 -0.952700 -0.000000 -41.211100
1.329503 17.362723 2.022698 -169.363643 -82.054759 -171.586608 -10.105960 0.268468 -2.902292 -12.786165 5.809130 -15.183542 -2.894448 -0.579046 10.284151 0.252048 -0.646212 -8.187590 -0.041600 0.000001 -24.215501 9.108920 1.011036 -1.536118 6.463396 0.569268 -39.934939 1.693609 -2.468265 31.431733 -0.942186 -3.842035 0.772443 -1.003800 0.000000 -41.254900
1.219790 17.356571 2.015179 -169.730189 -82.223426 -171.198981 -10.101865 0.285769 -2.952750 -12.803046 5.729383 -14.671836 -2.889189 -0.578948 10.279578 0.257192 -0.638244 -8.317657 -0.045900 -0.000000 -24.621700 9.025363 1.031911 -1.365877 6.430663 0.816198 -39.980434 1.839765 -2.237405 28.929767 -0.915441 -3.764829 1.056104 -1.045001 -0.000000 -41.263701
1.109363 17.349182 2.006271 -170.237872 -82.399396 -170.663514 -10.092833 0.304426 -2.999512 -12.836035 5.623423 -14.168451 -2.884537 -0.577983 10.289919 0.263908 -0.617988 -8.447271 -0.050600 0.000000 -25.003400 8.950513 1.054545 -1.189937 6.374488 1.046577 -40.018525 1.983148 -1.994280 26.398698 -0.872326 -3.613598 1.374489 -1.072200 -0.000001 -41.286400
0.997937 17.340466 1.996036 -170.879146 -82.585794 -169.987394 -10.079707 0.324805 -3.042623 -12.883430 5.499320 -13.677495 -2.881128 -0.575763 10.321371 0.271415 -0.593066 -8.579846 -0.055600 0.000000 -25.356101 8.884925 1.079341 -1.010040 6.299148 1.253568 -40.051596 2.123222 -1.740510 23.853997 -0.812165 -3.386056 1.724315 -1.082700 -0.000000 -41.364000
0.885609 17.330332 1.984541 -171.660586 -82.785205 -169.170212 -10.062853 0.346887 -3.083061 -12.944210 5.364383 -13.195556 -2.879358 -0.572191 10.374313 0.279275 -0.567791 -8.717720 -0.061000 0.000001 -25.683701 8.829121 1.107407 -0.829745 6.208022 1.429625 -40.078668 2.259230 -1.478651 21.315680 -0.735152 -3.081759 2.095645 -1.073300 -0.000001 -41.524900
0.772287 17.318707 1.971839 -172.605584 -82.998619 -168.193749 -10.041715 0.370700 -3.121612 -13.018982 5.220482 -12.709672 -2.879193 -0.568041 10.438662 0.287703 -0.540244 -8.860525 -0.066799 -0.000000 -25.996100 8.783807 1.140179 -0.654020 6.103025 1.566739 -40.095470 2.390298 -1.211959 18.806467 -0.642111 -2.700263 2.471905 -1.040500 0.000000 -41.778701
0.657875 17.305563 1.957983 -173.697934 -83.227663 -167.075530 -10.017576 0.396406 -3.158638 -13.102990 5.080040 -12.225353 -2.881488 -0.562903 10.521302 0.295385 -0.523236 -9.014181 -0.072800 0.000000 -26.305200 8.747961 1.177798 -0.484374 5.992506 1.663279 -40.104123 2.516211 -0.942903 16.345909 -0.535128 -2.246965 2.835083 -0.983000 -0.000000 -42.116500
0.542397 17.290859 1.943008 -174.959257 -83.471663 -165.798527 -9.989527 0.423818 -3.194514 -13.195735 4.942182 -11.729304 -2.885925 -0.557713 10.609675 0.302670 -0.513475 -9.177296 -0.078900 -0.000000 -26.626700 8.721515 1.221480 -0.325142 5.879570 1.715153 -40.100667 2.636293 -0.674682 13.954016 -0.416105 -1.723756 3.165413 -0.899400 0.000000 -42.512501
0.425737 17.274573 1.927088 -176.361995 -83.734184 -164.388170 -9.959214 0.453052 -3.227900 -13.289831 4.815353 -11.235525 -2.893197 -0.551689 10.717733 0.308006 -0.526597 -9.357767 -0.084800 -0.000000 -26.974500 8.702684 1.270554 -0.176512 5.775891 1.719712 -40.091930 2.751417 -0.409127 11.644386 -0.287333 -1.136464 3.448870 -0.790800 -0.000000 -42.934800
0.308211 17.256904 1.910088 -177.982067 -84.001015 -162.780067 -9.921303 0.483113 -3.261865 -13.393253 4.682218 -10.693918 -2.901059 -0.548078 10.791383 0.314707 -0.528848 -9.535758 -0.091300 -0.000000 -27.361600 8.693037 1.328244 -0.044302 5.670020 1.688510 -40.058532 2.857303 -0.149262 9.425832 -0.152359 -0.495017 3.676083 -0.659600 0.000000 -43.331400
0.189419 17.237744 1.892264 -179.735794 -84.282773 -161.043355 -9.880619 0.514841 -3.291698 -13.490660 4.557248 -10.155420 -2.911148 -0.543800 10.880755 0.319234 -0.556046 -9.730096 -0.097100 0.000000 -27.792100 8.689390 1.391144 0.076829 5.582672 1.617554 -40.022468 2.956802 0.105134 7.299166 -0.013459 0.188549 3.853173 -0.511499 0.000000 -43.683200
0.069391 17.217257 1.873612 178.354524 -84.572325 -159.155773 -9.835114 0.547988 -3.317341 -13.582458 4.429837 -9.607063 -2.922269 -0.539686 10.968931 0.322905 -0.594881 -9.932527 -0.102500 -0.000000 -28.265599 8.692180 1.459896 0.186215 5.510902 1.516058 -39.980018 3.047497 0.352774 5.262291 0.125826 0.896780 3.991949 -0.352500 0.000000 -43.969100
-0.051844 17.195526 1.854195 176.277542 -84.865563 -157.105234 -9.783559 0.582726 -3.337492 -13.668365 4.290079 -9.046470 -2.933515 -0.535618 11.051589 0.326595 -0.636758 -10.138140 -0.107600 -0.000000 -28.777800 8.701934 1.534460 0.283532 5.455470 1.387573 -39.933304 3.127919 0.592009 3.314626 0.262524 1.612370 4.111787 -0.188500 0.000001 -44.194500
-0.174427 17.172607 1.834067 174.037454 -85.158210 -154.890147 -9.726033 0.619625 -3.350702 -13.746302 4.132677 -8.481183 -2.944416 -0.530837 11.133919 0.330594 -0.678755 -10.344915 -0.112600 0.000000 -29.318200 8.718755 1.613875 0.370593 5.417299 1.239252 -39.888405 3.196839 0.821717 1.453513 0.393035 2.310944 4.236670 -0.026299 -0.000000 -44.391699
-0.298339 17.148586 1.813239 171.624871 -85.445453 -152.499669 -9.662458 0.659254 -3.356033 -13.815983 3.951976 -7.916432 -2.954522 -0.524446 11.220134 0.335437 -0.715556 -10.550093 -0.117500 0.000001 -29.873700 8.742983 1.697470 0.448217 5.396177 1.076417 -39.851531 3.253231 1.040109 -0.318344 0.513831 2.967151 4.387413 0.128300 -0.000000 -44.614000
-0.423726 17.123536 1.791740 169.031320 -85.721225 -149.922442 -9.593135 0.702622 -3.352840 -13.878228 3.743814 -7.354756 -2.963450 -0.515669 11.312879 0.341732 -0.740972 -10.750605 -0.122800 0.000000 -30.437200 8.774774 1.784233 0.516406 5.392798 0.902232 -39.828837 3.297050 1.244972 -1.991047 0.621930 3.558108 4.576512 0.270400 -0.000000 -44.927000
-0.550727 17.097451 1.769609 166.237068 -85.985833 -147.134296 -9.520714 0.751154 -3.339408 -13.930793 3.512588 -6.819421 -2.971967 -0.502484 11.437211 0.348589 -0.764213 -10.952778 -0.127900 0.000000 -30.989901 8.813003 1.872248 0.576553 5.414366 0.712050 -39.839778 3.331132 1.434370 -3.542646 0.715568 4.067529 4.800706 0.396500 -0.000000 -45.387500
-0.679229 17.070534 1.746822 163.283495 -86.220483 -144.184302 -9.444398 0.804182 -3.321718 -13.978748 3.256276 -6.273006 -2.978371 -0.486315 11.552901 0.358203 -0.759797 -11.136660 -0.134200 0.000000 -31.559900 8.856705 1.961447 0.628427 5.441452 0.539472 -39.855585 3.350261 1.608026 -4.981801 0.787810 4.446792 5.061172 0.495000 0.000000 -46.053500
-0.809413 17.042699 1.723339 160.107191 -86.434256 -141.004455 -9.368442 0.864109 -3.296057 -14.018993 2.985667 -5.751901 -2.984641 -0.464518 11.702872 0.368243 -0.751780 -11.317690 -0.140300 -0.000000 -32.132600 8.903722 2.049515 0.669934 5.497888 0.350152 -39.913719 3.363868 1.762999 -6.252571 0.842468 4.718763 5.311232 0.568500 0.000000 -46.921400
-0.941477 17.014000 1.699115 156.699582 -86.624647 -137.585402 -9.296153 0.931555 -3.264040 -14.049663 2.712261 -5.261145 -2.991341 -0.436624 11.891867 0.377676 -0.747942 -11.496108 -0.145800 -0.000000 -32.717200 8.951023 2.134545 0.702620 5.583578 0.150199 -40.014451 3.373939 1.900078 -7.337810 0.877914 4.871412 5.513541 0.610600 0.000000 -47.952800
-1.075127 16.984588 1.674103 153.132206 -86.784325 -134.006900 -9.226899 1.003064 -3.235509 -14.071307 2.443901 -4.766928 -2.997822 -0.405134 12.085276 0.386610 -0.740635 -11.655469 -0.150601 -0.000000 -33.365100 8.977546 2.205600 0.729501 5.675321 0.009990 -40.554087 3.393839 1.941697 -7.372273 0.862300 4.904670 5.142131 0.612599 -0.000000 -49.107600
-1.210745 16.954394 1.648094 149.271191 -86.924899 -130.127609 -9.165168 1.082189 -3.204611 -14.079259 2.191761 -4.307864 -3.006212 -0.367685 12.322914 0.392265 -0.758195 -11.813080 -0.152899 -0.000000 -34.054900 8.991245 2.265993 0.750002 5.794495 -0.123425 -41.327270 3.423914 1.930378 -6.793874 0.817345 4.846905 4.411221 0.580701 0.000000 -50.236900
-1.348107 16.923590 1.621025 145.212276 -87.036323 -126.059014 -9.113921 1.167666 -3.177337 -14.071966 1.969872 -3.844457 -3.015155 -0.325412 12.564397 0.394187 -0.795488 -11.947582 -0.152200 -0.000000 -34.865600 9.005814 2.324707 0.760007 5.924890 -0.255998 -41.905265 3.442834 1.937753 -6.399444 0.766553 4.659276 3.753333 0.510900 -0.000000 -51.257500
-1.487577 16.892130 1.592626 140.764505 -87.125588 -121.600592 -9.076026 1.261555 -3.147095 -14.048448 1.774640 -3.407855 -3.026099 -0.277448 12.838156 0.390830 -0.870389 -12.074650 -0.147301 0.000000 -35.740900 9.020332 2.382398 0.760398 6.073112 -0.410543 -42.287705 3.455378 1.968808 -6.209820 0.716607 4.388638 3.164464 0.416200 -0.000000 -52.006900
-1.628876 16.860147 1.562887 136.025045 -87.188505 -116.859229 -9.053506 1.360276 -3.120554 -14.004252 1.615153 -2.966517 -3.037571 -0.225653 13.110365 0.381269 -0.981449 -12.171573 -0.137300 0.000000 -36.768301 9.031035 2.437404 0.751682 6.214852 -0.552775 -42.469555 3.457319 2.017788 -6.182074 0.662720 4.036087 2.627708 0.301700 0.000000 -52.415500
-1.772298 16.827728 1.531639 130.831776 -87.225868 -111.663134 -9.048760 1.463971 -3.091360 -13.940708 1.476087 -2.540781 -3.049471 -0.170127 13.396027 0.365544 -1.131720 -12.246348 -0.122200 0.000000 -37.881500 9.036371 2.489137 0.736306 6.344003 -0.690109 -42.466639 3.451963 2.083915 -6.311209 0.607896 3.646156 2.163777 0.182800 0.000000 -52.402000
-1.917973 16.795053 1.498935 125.207262 -87.234603 -106.030756 -9.064633 1.569452 -3.059533 -13.854834 1.350820 -2.126641 -3.060069 -0.112109 13.686838 0.343766 -1.317288 -12.289318 -0.102100 -0.000000 -39.090200 9.033363 2.534293 0.717322 6.443527 -0.803114 -42.294557 3.438866 2.161126 -6.567556 0.551993 3.239817 1.800283 0.068900 -0.000000 -51.959200
